# xmcd
#
# Track frame offsets:
# 150
# 20839
# 53086
# 72402
# 89146
# 109471
# 123729
# 158521
# 174034
# 188082
# 201807
# 216063
# 230989
# 245476
# 278348
# 298266
#
# Disc length: 4352 seconds
#
# Revision: 0
# Processed by: cddbd v1.5PL3 Copyright (c) Steve Scherf et al.
# Submitted via: Axialis_AX_CDPlayer 2.6
#
DISCID=f310fe10
DTITLE=Tab Benoit - Nice and Warm
DYEAR=1900
DGENRE=
TTITLE0=Gone Too Long
TTITLE1=These Blues are all Mine
TTITLE2=These Arms of Mine
TTITLE3=Jambalaya
TTITLE4=Travelin' South
TTITLE5=Free and Fast
TTITLE6=Georgia
TTITLE7=I've Been Mistreated
TTITLE8=Too Sweet For Me
TTITLE9=Up and Gone
TTITLE10=Twentynine Ways
TTITLE11=She's My Number One
TTITLE12=Loves Lips
TTITLE13=Nice and Warm
TTITLE14=Bone Pickin'
TTITLE15=Bad Luck Blues
EXTD=
EXTT0=
EXTT1=
EXTT2=
EXTT3=
EXTT4=
EXTT5=
EXTT6=
EXTT7=
EXTT8=
EXTT9=
EXTT10=
EXTT11=
EXTT12=
EXTT13=
EXTT14=
EXTT15=
PLAYORDER=
